<mxfile host="app.diagrams.net" agent="Mozilla/5.0 (X11; Linux x86_64) AppleWebKit/537.36 (KHTML, like Gecko) Chrome/126.0.0.0 Safari/537.36" version="26.1.3">
  <diagram name="Page-1" id="v4LgNIbdL4Atsb9Uvo1o">
    <mxGraphModel dx="1137" dy="633" grid="1" gridSize="10" guides="1" tooltips="1" connect="1" arrows="1" fold="1" page="1" pageScale="1" pageWidth="850" pageHeight="1100" math="1" shadow="0">
      <root>
        <mxCell id="0" />
        <mxCell id="1" parent="0" />
        <mxCell id="zId-hDjp-LpYhjr2htkF-162" value="" style="rounded=1;whiteSpace=wrap;html=1;arcSize=1;" vertex="1" parent="1">
          <mxGeometry x="150" y="110" width="240" height="270" as="geometry" />
        </mxCell>
        <mxCell id="zId-hDjp-LpYhjr2htkF-146" style="edgeStyle=orthogonalEdgeStyle;rounded=0;orthogonalLoop=1;jettySize=auto;html=1;exitX=0.5;exitY=1;exitDx=0;exitDy=0;entryX=0.5;entryY=0;entryDx=0;entryDy=0;endArrow=none;startFill=0;" edge="1" parent="1" source="zId-hDjp-LpYhjr2htkF-130" target="zId-hDjp-LpYhjr2htkF-134">
          <mxGeometry relative="1" as="geometry" />
        </mxCell>
        <mxCell id="zId-hDjp-LpYhjr2htkF-130" value="$$1$$" style="rounded=1;whiteSpace=wrap;html=1;arcSize=8;" vertex="1" parent="1">
          <mxGeometry x="160" y="120" width="40" height="40" as="geometry" />
        </mxCell>
        <mxCell id="zId-hDjp-LpYhjr2htkF-149" style="edgeStyle=orthogonalEdgeStyle;rounded=0;orthogonalLoop=1;jettySize=auto;html=1;exitX=0.5;exitY=1;exitDx=0;exitDy=0;entryX=0.5;entryY=0;entryDx=0;entryDy=0;endArrow=none;startFill=0;" edge="1" parent="1" source="zId-hDjp-LpYhjr2htkF-131" target="zId-hDjp-LpYhjr2htkF-135">
          <mxGeometry relative="1" as="geometry" />
        </mxCell>
        <mxCell id="zId-hDjp-LpYhjr2htkF-131" value="$$2$$" style="rounded=1;whiteSpace=wrap;html=1;arcSize=8;" vertex="1" parent="1">
          <mxGeometry x="220" y="120" width="40" height="40" as="geometry" />
        </mxCell>
        <mxCell id="zId-hDjp-LpYhjr2htkF-152" style="edgeStyle=orthogonalEdgeStyle;rounded=0;orthogonalLoop=1;jettySize=auto;html=1;exitX=0.5;exitY=1;exitDx=0;exitDy=0;entryX=0.5;entryY=0;entryDx=0;entryDy=0;endArrow=none;startFill=0;" edge="1" parent="1" source="zId-hDjp-LpYhjr2htkF-132" target="zId-hDjp-LpYhjr2htkF-136">
          <mxGeometry relative="1" as="geometry" />
        </mxCell>
        <mxCell id="zId-hDjp-LpYhjr2htkF-132" value="$$3$$" style="rounded=1;whiteSpace=wrap;html=1;arcSize=8;" vertex="1" parent="1">
          <mxGeometry x="280" y="120" width="40" height="40" as="geometry" />
        </mxCell>
        <mxCell id="zId-hDjp-LpYhjr2htkF-155" style="edgeStyle=orthogonalEdgeStyle;rounded=0;orthogonalLoop=1;jettySize=auto;html=1;exitX=0.5;exitY=1;exitDx=0;exitDy=0;entryX=0.5;entryY=0;entryDx=0;entryDy=0;endArrow=none;startFill=0;" edge="1" parent="1" source="zId-hDjp-LpYhjr2htkF-133" target="zId-hDjp-LpYhjr2htkF-137">
          <mxGeometry relative="1" as="geometry" />
        </mxCell>
        <mxCell id="zId-hDjp-LpYhjr2htkF-133" value="$$4$$" style="rounded=1;whiteSpace=wrap;html=1;arcSize=8;" vertex="1" parent="1">
          <mxGeometry x="340" y="120" width="40" height="40" as="geometry" />
        </mxCell>
        <mxCell id="zId-hDjp-LpYhjr2htkF-147" style="edgeStyle=orthogonalEdgeStyle;rounded=0;orthogonalLoop=1;jettySize=auto;html=1;exitX=0.5;exitY=1;exitDx=0;exitDy=0;entryX=0.5;entryY=0;entryDx=0;entryDy=0;endArrow=none;startFill=0;" edge="1" parent="1" source="zId-hDjp-LpYhjr2htkF-134" target="zId-hDjp-LpYhjr2htkF-138">
          <mxGeometry relative="1" as="geometry" />
        </mxCell>
        <mxCell id="zId-hDjp-LpYhjr2htkF-134" value="$$5$$" style="rounded=1;whiteSpace=wrap;html=1;arcSize=8;" vertex="1" parent="1">
          <mxGeometry x="160" y="190" width="40" height="40" as="geometry" />
        </mxCell>
        <mxCell id="zId-hDjp-LpYhjr2htkF-150" style="edgeStyle=orthogonalEdgeStyle;rounded=0;orthogonalLoop=1;jettySize=auto;html=1;exitX=0.5;exitY=1;exitDx=0;exitDy=0;entryX=0.5;entryY=0;entryDx=0;entryDy=0;endArrow=none;startFill=0;" edge="1" parent="1" source="zId-hDjp-LpYhjr2htkF-135" target="zId-hDjp-LpYhjr2htkF-139">
          <mxGeometry relative="1" as="geometry" />
        </mxCell>
        <mxCell id="zId-hDjp-LpYhjr2htkF-135" value="$$6$$" style="rounded=1;whiteSpace=wrap;html=1;arcSize=8;" vertex="1" parent="1">
          <mxGeometry x="220" y="190" width="40" height="40" as="geometry" />
        </mxCell>
        <mxCell id="zId-hDjp-LpYhjr2htkF-153" style="edgeStyle=orthogonalEdgeStyle;rounded=0;orthogonalLoop=1;jettySize=auto;html=1;exitX=0.5;exitY=1;exitDx=0;exitDy=0;entryX=0.5;entryY=0;entryDx=0;entryDy=0;endArrow=none;startFill=0;" edge="1" parent="1" source="zId-hDjp-LpYhjr2htkF-136" target="zId-hDjp-LpYhjr2htkF-140">
          <mxGeometry relative="1" as="geometry" />
        </mxCell>
        <mxCell id="zId-hDjp-LpYhjr2htkF-136" value="$$7$$" style="rounded=1;whiteSpace=wrap;html=1;arcSize=8;" vertex="1" parent="1">
          <mxGeometry x="280" y="190" width="40" height="40" as="geometry" />
        </mxCell>
        <mxCell id="zId-hDjp-LpYhjr2htkF-156" style="edgeStyle=orthogonalEdgeStyle;rounded=0;orthogonalLoop=1;jettySize=auto;html=1;exitX=0.5;exitY=1;exitDx=0;exitDy=0;entryX=0.5;entryY=0;entryDx=0;entryDy=0;endArrow=none;startFill=0;" edge="1" parent="1" source="zId-hDjp-LpYhjr2htkF-137" target="zId-hDjp-LpYhjr2htkF-141">
          <mxGeometry relative="1" as="geometry" />
        </mxCell>
        <mxCell id="zId-hDjp-LpYhjr2htkF-137" value="$$8$$" style="rounded=1;whiteSpace=wrap;html=1;arcSize=8;" vertex="1" parent="1">
          <mxGeometry x="340" y="190" width="40" height="40" as="geometry" />
        </mxCell>
        <mxCell id="zId-hDjp-LpYhjr2htkF-148" style="edgeStyle=orthogonalEdgeStyle;rounded=0;orthogonalLoop=1;jettySize=auto;html=1;exitX=0.5;exitY=1;exitDx=0;exitDy=0;entryX=0.5;entryY=0;entryDx=0;entryDy=0;endArrow=none;startFill=0;" edge="1" parent="1" source="zId-hDjp-LpYhjr2htkF-138" target="zId-hDjp-LpYhjr2htkF-142">
          <mxGeometry relative="1" as="geometry" />
        </mxCell>
        <mxCell id="zId-hDjp-LpYhjr2htkF-138" value="$$9$$" style="rounded=1;whiteSpace=wrap;html=1;arcSize=8;" vertex="1" parent="1">
          <mxGeometry x="160" y="260" width="40" height="40" as="geometry" />
        </mxCell>
        <mxCell id="zId-hDjp-LpYhjr2htkF-151" style="edgeStyle=orthogonalEdgeStyle;rounded=0;orthogonalLoop=1;jettySize=auto;html=1;exitX=0.5;exitY=1;exitDx=0;exitDy=0;entryX=0.5;entryY=0;entryDx=0;entryDy=0;endArrow=none;startFill=0;" edge="1" parent="1" source="zId-hDjp-LpYhjr2htkF-139" target="zId-hDjp-LpYhjr2htkF-143">
          <mxGeometry relative="1" as="geometry" />
        </mxCell>
        <mxCell id="zId-hDjp-LpYhjr2htkF-139" value="$$10$$" style="rounded=1;whiteSpace=wrap;html=1;arcSize=8;" vertex="1" parent="1">
          <mxGeometry x="220" y="260" width="40" height="40" as="geometry" />
        </mxCell>
        <mxCell id="zId-hDjp-LpYhjr2htkF-154" style="edgeStyle=orthogonalEdgeStyle;rounded=0;orthogonalLoop=1;jettySize=auto;html=1;exitX=0.5;exitY=1;exitDx=0;exitDy=0;entryX=0.5;entryY=0;entryDx=0;entryDy=0;endArrow=none;startFill=0;" edge="1" parent="1" source="zId-hDjp-LpYhjr2htkF-140" target="zId-hDjp-LpYhjr2htkF-144">
          <mxGeometry relative="1" as="geometry" />
        </mxCell>
        <mxCell id="zId-hDjp-LpYhjr2htkF-140" value="$$11$$" style="rounded=1;whiteSpace=wrap;html=1;arcSize=8;" vertex="1" parent="1">
          <mxGeometry x="280" y="260" width="40" height="40" as="geometry" />
        </mxCell>
        <mxCell id="zId-hDjp-LpYhjr2htkF-157" style="edgeStyle=orthogonalEdgeStyle;rounded=0;orthogonalLoop=1;jettySize=auto;html=1;exitX=0.5;exitY=1;exitDx=0;exitDy=0;entryX=0.5;entryY=0;entryDx=0;entryDy=0;endArrow=none;startFill=0;" edge="1" parent="1" source="zId-hDjp-LpYhjr2htkF-141" target="zId-hDjp-LpYhjr2htkF-145">
          <mxGeometry relative="1" as="geometry" />
        </mxCell>
        <mxCell id="zId-hDjp-LpYhjr2htkF-141" value="$$12$$" style="rounded=1;whiteSpace=wrap;html=1;arcSize=8;" vertex="1" parent="1">
          <mxGeometry x="340" y="260" width="40" height="40" as="geometry" />
        </mxCell>
        <mxCell id="zId-hDjp-LpYhjr2htkF-142" value="$$13$$" style="rounded=1;whiteSpace=wrap;html=1;arcSize=8;" vertex="1" parent="1">
          <mxGeometry x="160" y="330" width="40" height="40" as="geometry" />
        </mxCell>
        <mxCell id="zId-hDjp-LpYhjr2htkF-143" value="$$14$$" style="rounded=1;whiteSpace=wrap;html=1;arcSize=8;" vertex="1" parent="1">
          <mxGeometry x="220" y="330" width="40" height="40" as="geometry" />
        </mxCell>
        <mxCell id="zId-hDjp-LpYhjr2htkF-144" value="$$15$$" style="rounded=1;whiteSpace=wrap;html=1;arcSize=8;" vertex="1" parent="1">
          <mxGeometry x="280" y="330" width="40" height="40" as="geometry" />
        </mxCell>
        <mxCell id="zId-hDjp-LpYhjr2htkF-145" value="$$16$$" style="rounded=1;whiteSpace=wrap;html=1;arcSize=8;" vertex="1" parent="1">
          <mxGeometry x="340" y="330" width="40" height="40" as="geometry" />
        </mxCell>
        <mxCell id="zId-hDjp-LpYhjr2htkF-163" value="&lt;font face=&quot;Times New Roman&quot;&gt;Radio Receiver&lt;/font&gt;" style="rounded=1;whiteSpace=wrap;html=1;" vertex="1" parent="1">
          <mxGeometry x="210" y="420" width="120" height="60" as="geometry" />
        </mxCell>
        <mxCell id="zId-hDjp-LpYhjr2htkF-166" value="" style="endArrow=none;html=1;rounded=0;entryX=0.5;entryY=1;entryDx=0;entryDy=0;exitX=0.5;exitY=0;exitDx=0;exitDy=0;" edge="1" parent="1" source="zId-hDjp-LpYhjr2htkF-163" target="zId-hDjp-LpYhjr2htkF-142">
          <mxGeometry width="50" height="50" relative="1" as="geometry">
            <mxPoint x="150" y="460" as="sourcePoint" />
            <mxPoint x="200" y="410" as="targetPoint" />
          </mxGeometry>
        </mxCell>
        <mxCell id="zId-hDjp-LpYhjr2htkF-167" value="" style="endArrow=none;html=1;rounded=0;exitX=0.5;exitY=1;exitDx=0;exitDy=0;entryX=0.5;entryY=0;entryDx=0;entryDy=0;" edge="1" parent="1" source="zId-hDjp-LpYhjr2htkF-143" target="zId-hDjp-LpYhjr2htkF-163">
          <mxGeometry width="50" height="50" relative="1" as="geometry">
            <mxPoint x="375" y="470" as="sourcePoint" />
            <mxPoint x="425" y="420" as="targetPoint" />
          </mxGeometry>
        </mxCell>
        <mxCell id="zId-hDjp-LpYhjr2htkF-168" value="" style="endArrow=none;html=1;rounded=0;entryX=0.5;entryY=1;entryDx=0;entryDy=0;" edge="1" parent="1" target="zId-hDjp-LpYhjr2htkF-144">
          <mxGeometry width="50" height="50" relative="1" as="geometry">
            <mxPoint x="270" y="420" as="sourcePoint" />
            <mxPoint x="310" y="390" as="targetPoint" />
          </mxGeometry>
        </mxCell>
        <mxCell id="zId-hDjp-LpYhjr2htkF-169" value="" style="endArrow=none;html=1;rounded=0;entryX=0.5;entryY=1;entryDx=0;entryDy=0;" edge="1" parent="1" target="zId-hDjp-LpYhjr2htkF-145">
          <mxGeometry width="50" height="50" relative="1" as="geometry">
            <mxPoint x="270" y="420" as="sourcePoint" />
            <mxPoint x="390" y="410" as="targetPoint" />
          </mxGeometry>
        </mxCell>
        <mxCell id="zId-hDjp-LpYhjr2htkF-170" value="" style="endArrow=none;html=1;rounded=0;exitX=0.127;exitY=1.002;exitDx=0;exitDy=0;exitPerimeter=0;entryX=0.5;entryY=0;entryDx=0;entryDy=0;" edge="1" parent="1" source="zId-hDjp-LpYhjr2htkF-162" target="zId-hDjp-LpYhjr2htkF-163">
          <mxGeometry width="50" height="50" relative="1" as="geometry">
            <mxPoint x="270" y="380" as="sourcePoint" />
            <mxPoint x="320" y="330" as="targetPoint" />
          </mxGeometry>
        </mxCell>
        <mxCell id="zId-hDjp-LpYhjr2htkF-171" value="" style="endArrow=none;html=1;rounded=0;exitX=0.5;exitY=0;exitDx=0;exitDy=0;" edge="1" parent="1" source="zId-hDjp-LpYhjr2htkF-163">
          <mxGeometry width="50" height="50" relative="1" as="geometry">
            <mxPoint x="310" y="430" as="sourcePoint" />
            <mxPoint x="360" y="380" as="targetPoint" />
          </mxGeometry>
        </mxCell>
        <mxCell id="zId-hDjp-LpYhjr2htkF-172" value="" style="endArrow=none;html=1;rounded=0;exitX=0.25;exitY=1;exitDx=0;exitDy=0;" edge="1" parent="1" source="zId-hDjp-LpYhjr2htkF-162">
          <mxGeometry width="50" height="50" relative="1" as="geometry">
            <mxPoint x="270" y="380" as="sourcePoint" />
            <mxPoint x="270" y="420" as="targetPoint" />
          </mxGeometry>
        </mxCell>
        <mxCell id="zId-hDjp-LpYhjr2htkF-173" value="" style="endArrow=none;html=1;rounded=0;entryX=0.75;entryY=1;entryDx=0;entryDy=0;exitX=0.5;exitY=0;exitDx=0;exitDy=0;" edge="1" parent="1" source="zId-hDjp-LpYhjr2htkF-163" target="zId-hDjp-LpYhjr2htkF-162">
          <mxGeometry width="50" height="50" relative="1" as="geometry">
            <mxPoint x="360" y="460" as="sourcePoint" />
            <mxPoint x="410" y="410" as="targetPoint" />
          </mxGeometry>
        </mxCell>
        <mxCell id="zId-hDjp-LpYhjr2htkF-181" value="" style="endArrow=none;html=1;rounded=0;entryX=0.375;entryY=1;entryDx=0;entryDy=0;entryPerimeter=0;" edge="1" parent="1" target="zId-hDjp-LpYhjr2htkF-162">
          <mxGeometry width="50" height="50" relative="1" as="geometry">
            <mxPoint x="270" y="420" as="sourcePoint" />
            <mxPoint x="300" y="360" as="targetPoint" />
          </mxGeometry>
        </mxCell>
        <mxCell id="zId-hDjp-LpYhjr2htkF-182" value="" style="endArrow=none;html=1;rounded=0;entryX=0.431;entryY=1.001;entryDx=0;entryDy=0;entryPerimeter=0;" edge="1" parent="1" target="zId-hDjp-LpYhjr2htkF-162">
          <mxGeometry width="50" height="50" relative="1" as="geometry">
            <mxPoint x="270" y="420" as="sourcePoint" />
            <mxPoint x="250" y="380" as="targetPoint" />
          </mxGeometry>
        </mxCell>
        <mxCell id="zId-hDjp-LpYhjr2htkF-183" value="" style="endArrow=none;html=1;rounded=0;entryX=0.621;entryY=1.001;entryDx=0;entryDy=0;entryPerimeter=0;" edge="1" parent="1" target="zId-hDjp-LpYhjr2htkF-162">
          <mxGeometry width="50" height="50" relative="1" as="geometry">
            <mxPoint x="270" y="420" as="sourcePoint" />
            <mxPoint x="300" y="360" as="targetPoint" />
          </mxGeometry>
        </mxCell>
        <mxCell id="zId-hDjp-LpYhjr2htkF-184" value="" style="endArrow=none;html=1;rounded=0;exitX=0.5;exitY=0;exitDx=0;exitDy=0;entryX=0.582;entryY=0.999;entryDx=0;entryDy=0;entryPerimeter=0;" edge="1" parent="1" source="zId-hDjp-LpYhjr2htkF-163" target="zId-hDjp-LpYhjr2htkF-162">
          <mxGeometry width="50" height="50" relative="1" as="geometry">
            <mxPoint x="250" y="410" as="sourcePoint" />
            <mxPoint x="300" y="360" as="targetPoint" />
          </mxGeometry>
        </mxCell>
      </root>
    </mxGraphModel>
  </diagram>
</mxfile>
